<svg xmlns="http://www.w3.org/2000/svg" viewBox="0 0 962 186"><defs><style>.cls-1{fill:#063506;}.cls-2,.cls-4{fill:#fff;}.cls-3{fill:#397224;}.cls-4,.cls-5{stroke:#397224;stroke-miterlimit:10;}.cls-4{stroke-width:3px;}.cls-5{fill:none;stroke-linecap:round;stroke-width:7px;}.cls-6{font-size:72px;fill:#67cc3e;font-family:OtomanopeeOne-Regular, Otomanopee One;}</style></defs><g id="レイヤー_4" data-name="レイヤー 4"><g id="レイヤー_1" data-name="レイヤー 1"><rect class="cls-1" x="-15" y="-15" width="987" height="225"/><path class="cls-2" d="M151.7,142.05s3.29,14.14,23.16,17.15c28.3,4.29,41.54-22.21,18-24a41.28,41.28,0,0,0-20.59,4.29s17.72-8,21.45-15.44c4.29-8.57-4.38-16.65-18.87-14.58-18,2.58-19.73,17.16-19.73,17.16S163.71,100,150,64.85c-11.75-30.12-43.74-60-90.06-44.6C.66,40,14.46,127.47,65.93,148.91,123.85,173.05,151.7,142.05,151.7,142.05Z"/><line class="cls-2" x1="63.37" y1="51.97" x2="65.72" y2="71.75"/><path class="cls-3" d="M61.87,52l2.06,17.32.29,2.46a1.54,1.54,0,0,0,1.5,1.5,1.5,1.5,0,0,0,1.5-1.5L65.16,54.43,64.87,52a1.55,1.55,0,0,0-1.5-1.5,1.5,1.5,0,0,0-1.5,1.5Z"/><line class="cls-2" x1="95.19" y1="47.68" x2="98.42" y2="66.58"/><path class="cls-3" d="M93.74,48.08,96.57,64.6,97,67a1.52,1.52,0,0,0,1.85,1,1.53,1.53,0,0,0,1.05-1.84L97,49.67l-.4-2.39a1.52,1.52,0,0,0-1.85-1.05,1.55,1.55,0,0,0-1.05,1.85Z"/><path class="cls-3" d="M53.28,63.14a39.42,39.42,0,0,0,1,8,8.69,8.69,0,0,0,2,4.25A7.7,7.7,0,0,0,61,77.14c4,.35,8.25-1,11.76-2.72a14.38,14.38,0,0,0,4.28-3.08,5,5,0,0,0,1-4A38.58,38.58,0,0,0,76,58.45c-.62-1.82-3.52-1-2.89.8a49.17,49.17,0,0,1,1.72,6.32,15.93,15.93,0,0,1,.29,1.94,9,9,0,0,1,0,1.57c0,.18.08,0,0,.07s-.39.42-.6.62a11,11,0,0,1-1.83,1.34,21.31,21.31,0,0,1-9.9,3.06,7.25,7.25,0,0,1-3.83-.65,4.31,4.31,0,0,1-1.54-2.77,34.32,34.32,0,0,1-1-7.61c-.07-1.93-3.07-1.94-3,0Z"/><line class="cls-2" x1="76.05" y1="63.73" x2="86.51" y2="61.42"/><path class="cls-3" d="M76.45,65.17l9.16-2,1.3-.28A1.53,1.53,0,0,0,88,61,1.54,1.54,0,0,0,86.11,60L77,62l-1.3.29a1.5,1.5,0,0,0,.79,2.89Z"/><path class="cls-3" d="M85,56.27a56.19,56.19,0,0,0,.6,10.21c.26,1.57.67,3.38,2.22,4.15a13.44,13.44,0,0,0,5.33,1,43.15,43.15,0,0,0,13.94-1.54,9.05,9.05,0,0,0,4.39-2.3c1.25-1.44.94-3.59.63-5.32a51.08,51.08,0,0,0-3.73-11.21c-.76-1.77-3.35-.24-2.59,1.51,0,.06,0,.12.08.19-.08-.19,0,0,.11.27q.44,1,.84,2.1c.7,1.83,1.34,3.69,1.86,5.58a22.4,22.4,0,0,1,.61,2.79,8.78,8.78,0,0,1,.09,1,5.88,5.88,0,0,1,0,.75c0,.14-.08.27-.11.4.08-.31-.17.1.08-.15a3.65,3.65,0,0,1-.39.36,7.37,7.37,0,0,1-1.91.89,38.27,38.27,0,0,1-12,1.7,19.58,19.58,0,0,1-5.13-.45c-.13,0-.86-.27-.58-.18-.06,0-.14-.09-.21-.11-.26-.05.13.19,0,0,.17.24-.12-.31-.12-.3a8.06,8.06,0,0,1-.33-1.26,46.28,46.28,0,0,1-.61-10c0-1.93-3-1.93-3,0Z"/><path class="cls-2" d="M92,37c6.53-3.86,10.82,3,4,6.43S83.56,42,92,37Z"/><path class="cls-3" d="M92.75,38.27a9.42,9.42,0,0,1,.89-.47,1.89,1.89,0,0,0,.21-.09c-.34.19-.19.08-.07,0l.44-.15a5.67,5.67,0,0,1,.81-.21l.19,0c.28-.05-.34,0-.14,0s.28,0,.43,0,.45,0,.67,0,.25.09-.17,0l.19,0,.33.07.29.09.13,0c.24.09-.36-.17-.14,0a3.7,3.7,0,0,1,.51.29c.31.21-.27-.25,0,0,.06.06.13.11.19.18s.12.13.18.19.12.23-.14-.18a1.77,1.77,0,0,1,.12.17c.06.09.26.35.25.45s-.15-.41-.1-.21l.06.14a2.82,2.82,0,0,1,.07.31s0,.06,0,.1c0,.24,0-.43,0-.19a2.46,2.46,0,0,1,0,.26c0,.09,0,.18,0,.28s0,.07,0,.1c0-.49,0-.28,0-.12a5.15,5.15,0,0,1-.16.56c-.11.33.17-.34,0,0-.06.11-.12.23-.19.34a2.2,2.2,0,0,1-.18.28c-.21.3.23-.27,0,0a6.43,6.43,0,0,1-.57.6l-.31.26c-.18.15.09-.07.11-.08a1.13,1.13,0,0,0-.21.15,7.86,7.86,0,0,1-.87.54c-.29.16-.59.3-.89.44s.25-.1,0,0l-.22.08-.52.19c-.28.09-.56.17-.85.24a2.71,2.71,0,0,1-.41.09c-.13,0-.7.09-.16,0A8.93,8.93,0,0,1,91,43c-.14,0-.56-.1,0,0l-.32,0c-.22-.05-.44-.11-.65-.18a.76.76,0,0,1-.16-.06s.39.18.2.08l-.25-.12-.23-.14-.12-.09c.37.22.25.2.14.1l-.18-.17c-.12-.12-.22-.34,0,.09l-.13-.2c-.1-.16-.14-.43,0,.06a2.14,2.14,0,0,1-.09-.27l0-.14c-.06-.21,0,.44,0,.21s0-.2,0-.3v-.1c0-.33-.08.37,0,.14s.05-.22.08-.33.16-.44,0-.15.07-.13.11-.2a3.37,3.37,0,0,1,.19-.32c.08-.13.17-.24.25-.36-.28.42,0,0,.13-.13a9.08,9.08,0,0,1,.76-.76,2.45,2.45,0,0,1,.47-.38c-.26.13-.15.11-.06,0l.36-.26c.39-.28.8-.53,1.21-.78a1.5,1.5,0,1,0-1.52-2.59c-2.39,1.43-5.46,3.8-4.93,7,.41,2.47,3.2,3.45,5.4,3.39a11.63,11.63,0,0,0,4.38-1,9.18,9.18,0,0,0,3.52-2.53A5.48,5.48,0,0,0,100.94,39a4.55,4.55,0,0,0-1.33-3.11c-2.27-2.29-5.86-1.64-8.38-.17a1.5,1.5,0,0,0,1.52,2.59Z"/><path class="cls-2" d="M63.92,40.94c-8.46-1.42-10.44,5.2-2,6.62C68.7,48.7,74.21,42.67,63.92,40.94Z"/><path class="cls-3" d="M64.32,39.49a13.14,13.14,0,0,0-5.19,0A5.93,5.93,0,0,0,56,41.31a3.77,3.77,0,0,0-.83,3.45,5.2,5.2,0,0,0,2.44,2.88,12.17,12.17,0,0,0,4.81,1.49,11,11,0,0,0,3.95-.26c2.14-.53,4.54-1.93,4.77-4.34a3.51,3.51,0,0,0-1.3-2.88,9.89,9.89,0,0,0-4.11-1.88c-.46-.11-.91-.2-1.37-.28a1.55,1.55,0,0,0-1.85,1,1.51,1.51,0,0,0,1.05,1.84,17.37,17.37,0,0,1,2.37.56l.48.16c.13,0,.64.28.16,0a7.54,7.54,0,0,1,.75.38l.31.19.15.1c.21.14-.31-.26-.13-.1a5.86,5.86,0,0,1,.44.42c.2.23-.24-.37,0,0a2.53,2.53,0,0,1,.13.22c.14.25-.13-.4-.06-.14,0,.09.05.18.07.26s0-.46,0-.25v.11a1.55,1.55,0,0,1,0,.22c0-.52.06-.35,0-.18a2.58,2.58,0,0,1-.08.26c-.06.2.19-.4.09-.22l0,.11a2.39,2.39,0,0,1-.13.21c-.09.14-.28.25.08-.1-.07.07-.13.16-.2.23l-.2.2c-.06,0-.33.26-.07.06s0,0-.09.06l-.31.2a5.52,5.52,0,0,1-.54.28l-.15.08c-.23.1.38-.15.14-.07l-.39.15a9.39,9.39,0,0,1-1.48.36c-.12,0-.39,0,.13,0l-.2,0-.35,0c-.3,0-.61,0-.91,0a7.34,7.34,0,0,1-.81-.05l-.22,0c-.29,0,.4.06.1,0s-.44-.07-.65-.12a16.54,16.54,0,0,1-2.08-.61c.47.15.06,0-.07,0a3.6,3.6,0,0,1-.39-.2,7.54,7.54,0,0,1-.7-.45c-.15-.1.32.27.14.1l-.14-.11-.25-.24a2.41,2.41,0,0,0-.21-.24c.37.39.12.15,0,0L58,44c-.14-.28.15.42,0,.06L58,43.79c-.08-.28,0,.48,0,.1v-.25c0-.15.1-.25,0,.23a.53.53,0,0,0,0-.12l.06-.25c.08-.28-.2.41,0,.08,0-.09.1-.18.16-.27.22-.31-.27.3,0,0l.2-.21.12-.1c.24-.21-.29.2-.1.08a6.34,6.34,0,0,1,.66-.39l.14-.07c.22-.1-.41.16-.07,0a3.66,3.66,0,0,1,.43-.15,7.06,7.06,0,0,1,.91-.21h-.1l.32,0c.19,0,.38,0,.58,0a11.25,11.25,0,0,1,1.16,0l.68.06.09,0c.17,0,.14,0-.09,0,.09,0,.31,0,.41.06a1.59,1.59,0,0,0,1.15-.15,1.49,1.49,0,0,0,.69-.89A1.52,1.52,0,0,0,64.32,39.49Z"/><path class="cls-2" d="M83.94,76c-2.88-4.6-17.73,8.72-9.44,12.87C81.37,92.3,88.23,82.86,83.94,76Z"/><path class="cls-3" d="M85.23,75.24c-1.63-2.52-4.81-1.73-7-.51A17,17,0,0,0,71.77,81c-1.42,2.51-1.94,5.79.35,8a8,8,0,0,0,5.35,2.08,8.67,8.67,0,0,0,5.69-2.31,10.87,10.87,0,0,0,2.07-13.55c-1-1.64-3.6-.13-2.59,1.52a7.05,7.05,0,0,1,1,2.44,7.89,7.89,0,0,1,.08,2.46c0-.24-.06.34-.06.38a6,6,0,0,1-.15.61c0,.2-.11.4-.17.6l-.11.29s-.18.43-.08.21a10.23,10.23,0,0,1-.57,1.09,4.45,4.45,0,0,1-.33.51l-.18.25c.12-.16,0,.05-.09.11a9.35,9.35,0,0,1-.87.91l-.27.23a6.3,6.3,0,0,1-.53.37,4.88,4.88,0,0,1-2,.81l-.16,0-.15,0a8.42,8.42,0,0,1-1.16,0c-.25,0,.2,0,0,0L76.4,88a5.74,5.74,0,0,1-1.91-.86c-.17-.1.16.16-.1-.08a3.71,3.71,0,0,1-.29-.27c-.11-.12-.25-.31-.06-.05-.09-.12-.17-.24-.25-.37s-.1-.21-.16-.31c.15.27.06.16,0,0s0-.22-.08-.33c-.12-.39,0,.29,0-.11,0-.24,0-.47,0-.71s0,.15,0,0,0-.27.08-.41.15-.53.24-.79c0-.1.21-.48,0-.1.07-.15.13-.29.2-.42a11,11,0,0,1,1-1.58l.26-.36c.13-.17-.16.2,0,0l.15-.18c.2-.25.41-.49.63-.73a18,18,0,0,1,1.4-1.36l.35-.29c.09-.07.4-.32.14-.12.26-.2.53-.39.8-.57a13.38,13.38,0,0,1,1.69-1c.36-.17-.18.05.12,0l.38-.14a8,8,0,0,1,.81-.21c.38-.08-.27,0,0,0h.47c.32,0-.14.07-.13,0s.27.06.29.06c.36.07-.14-.11,0,0s.24.15.28.16c-.29,0-.25-.25-.16-.12a.86.86,0,0,0,.14.13c.26.22-.18-.28,0,0C83.69,78.37,86.29,76.87,85.23,75.24Z"/><path class="cls-3" d="M83.3,76c-.49,3.81,3.09,7,6.12,8.6s7.58,2.87,10.36.22a6.24,6.24,0,0,0,1.71-4.64,6.77,6.77,0,0,0-1.9-4.2c-2.2-2.35-5.57-3.51-8.69-3.87-2.68-.31-7,.14-7.55,3.49a1.55,1.55,0,0,0,1.05,1.85,1.51,1.51,0,0,0,1.84-1c0-.1.05-.21.07-.31s.21-.31,0,0c0-.07.07-.16.13-.23s-.26.23,0,0a2.28,2.28,0,0,0,.22-.22c.12-.15-.3.17,0,0l.25-.15c.17-.09.4-.16.07,0,.24-.08.47-.17.71-.23l.33-.07c.15,0,.53-.07.16,0A11.63,11.63,0,0,1,90,75c.31,0,.63,0,.94.08s-.24,0,.14,0l.55.09a14.22,14.22,0,0,1,1.94.52c.32.1.63.22.94.35l.16.07.5.25a10.59,10.59,0,0,1,1.63,1c-.26-.2.06.06.14.12s.23.21.33.31.41.42.6.65c-.21-.25,0,0,.07.14a3.28,3.28,0,0,1,.2.31c.06.12.12.25.19.37s-.1-.26,0-.07l.09.25c0,.13.07.26.11.4a1.77,1.77,0,0,0,0,.2s0-.31,0-.14a7.06,7.06,0,0,1,0,.92c0,.24.07-.25,0,.16,0,.14-.06.27-.1.4s-.11.32-.17.47.1-.2,0,0-.09.19-.14.28a3,3,0,0,1-.24.38c.17-.24,0,0-.09.07l-.16.15c-.15.14.22-.15,0,0l-.42.25c-.2.12.23,0-.16.06-.13,0-.26.09-.39.12s-.52.1-.33.07l-.42,0a8,8,0,0,1-1,0l-.27,0c-.24,0,.22,0,0,0L94,83.13c-.35-.08-.71-.18-1.06-.29l-.57-.2-.28-.11s-.34-.14-.14,0a15.28,15.28,0,0,1-2.44-1.35,6.78,6.78,0,0,1-.9-.7,10.28,10.28,0,0,1-.95-.92,7.15,7.15,0,0,1-1.1-1.66c0,.09-.11-.31-.14-.42a5.23,5.23,0,0,1-.12-.54c0-.23,0,.25,0,0s0-.2,0-.31a3.18,3.18,0,0,1,0-.61,1.5,1.5,0,0,0-3,0Z"/><path class="cls-2" d="M50.44,128.22s0-5.86,7.22-8.28c5.75-1.92,9.46,3.6,7.44,7.37a10,10,0,0,1-3.76,3.3"/><path class="cls-3" d="M51.94,128.22c0-.05,0-.11,0-.16,0-.26.14-.54,0-.15.18-.52.24-1.09.43-1.62a2.6,2.6,0,0,1,.1-.25c-.13.3,0,.1,0,0s.18-.37.28-.55.19-.35.29-.51l.19-.29s.27-.37.11-.16a8.49,8.49,0,0,1,2.18-2,10,10,0,0,1,3.57-1.47,4.64,4.64,0,0,1,2.71.31,4,4,0,0,1,2.34,4.07c0,.27.08-.34,0,.12a3.54,3.54,0,0,1-.11.44,1.41,1.41,0,0,1-.2.49A5.26,5.26,0,0,1,62.55,128a9.79,9.79,0,0,1-2,1.31c-1.72.87-.21,3.46,1.51,2.59,2.1-1.06,4.22-2.85,4.85-5.19a6.94,6.94,0,0,0-2.32-7c-2.6-2.14-5.85-2-8.8-.68A11.53,11.53,0,0,0,50,124.23a9.2,9.2,0,0,0-1.09,4,1.5,1.5,0,0,0,3,0Z"/><path class="cls-3" d="M141.25,106.51a7.08,7.08,0,0,1-1.13,0c-.08,0-.68-.08-.33,0a4.85,4.85,0,0,1-.55-.09,10.12,10.12,0,0,1-1.55-.42c-1.91-.66-3.91-2.39-4.23-4.35,0,.27,0-.22,0-.31s0-.24,0-.36-.09.34,0-.08a4.61,4.61,0,0,1,.15-.53c.14-.42-.08.14,0-.09s.13-.25.2-.37,0-.09.25-.32l.26-.26s.28-.25.1-.11a4.54,4.54,0,0,1,1.16-.64c2.55-.92,5.66-.11,8,1.16a11.58,11.58,0,0,1,3.16,2.63s.33.4.14.15l.22.31c.1.14.2.28.29.43l.25.42c.87,1.73,3.46.21,2.59-1.51a12.7,12.7,0,0,0-4.51-4.64c-2.95-1.87-7-3-10.48-2a6.26,6.26,0,0,0-4.81,5.5c-.18,3,2.11,5.67,4.58,7a11.77,11.77,0,0,0,6.2,1.49c1.92-.11,1.93-3.11,0-3Z"/></g><g id="レイヤー_2" data-name="レイヤー 2"><rect class="cls-4" x="65.34" y="91.44" width="68.94" height="42.01" rx="15.33" transform="translate(-20.18 21.84) rotate(-11.35)"/><path class="cls-5" d="M74.73,118c4.3-6.2,10.06-11.63,17-14.75,7.32-3.29,15.67-3.21,23.27-.94a46.91,46.91,0,0,1,12.2,5.62"/><circle class="cls-3" cx="100.5" cy="114.89" r="11.01"/><circle class="cls-2" cx="93.02" cy="111.6" r="3.74"/></g></g><g id="レイヤー_3" data-name="レイヤー 3"><text class="cls-6" transform="translate(231.27 119.79)">あいきゃっちじぇねれーた</text></g></svg>