<svg xmlns="http://www.w3.org/2000/svg" viewBox="0 0 962 186"><defs><style>.cls-1{fill:#063506;}.cls-2,.cls-4{fill:#fff;}.cls-3{fill:#397224;}.cls-4,.cls-5{stroke:#397224;stroke-miterlimit:10;}.cls-4{stroke-width:3px;}.cls-5{fill:none;stroke-linecap:round;stroke-width:7px;}.cls-6{fill:#67cc3e;}</style></defs><g id="レイヤー_4" data-name="レイヤー 4"><g id="レイヤー_1" data-name="レイヤー 1"><rect class="cls-1" x="-15" y="-15" width="987" height="225"/><path class="cls-2" d="M151.7,142.05s3.29,14.14,23.16,17.15c28.3,4.29,41.54-22.21,18-24a41.28,41.28,0,0,0-20.59,4.29s17.72-8,21.45-15.44c4.29-8.57-4.38-16.65-18.87-14.58-18,2.58-19.73,17.16-19.73,17.16S163.71,100,150,64.85c-11.75-30.12-43.74-60-90.06-44.6C.66,40,14.46,127.47,65.93,148.91,123.85,173.05,151.7,142.05,151.7,142.05Z"/><line class="cls-2" x1="63.37" y1="51.97" x2="65.72" y2="71.75"/><path class="cls-3" d="M61.87,52l2.06,17.32.29,2.46a1.54,1.54,0,0,0,1.5,1.5,1.5,1.5,0,0,0,1.5-1.5L65.16,54.43,64.87,52a1.55,1.55,0,0,0-1.5-1.5,1.5,1.5,0,0,0-1.5,1.5Z"/><line class="cls-2" x1="95.19" y1="47.68" x2="98.42" y2="66.58"/><path class="cls-3" d="M93.74,48.08,96.57,64.6,97,67a1.52,1.52,0,0,0,1.85,1,1.53,1.53,0,0,0,1.05-1.84L97,49.67l-.4-2.39a1.52,1.52,0,0,0-1.85-1.05,1.55,1.55,0,0,0-1.05,1.85Z"/><path class="cls-3" d="M53.28,63.14a39.42,39.42,0,0,0,1,8,8.69,8.69,0,0,0,2,4.25A7.7,7.7,0,0,0,61,77.14c4,.35,8.25-1,11.76-2.72a14.38,14.38,0,0,0,4.28-3.08,5,5,0,0,0,1-4A38.58,38.58,0,0,0,76,58.45c-.62-1.82-3.52-1-2.89.8a49.17,49.17,0,0,1,1.72,6.32,15.93,15.93,0,0,1,.29,1.94,9,9,0,0,1,0,1.57c0,.18.08,0,0,.07s-.39.42-.6.62a11,11,0,0,1-1.83,1.34,21.31,21.31,0,0,1-9.9,3.06,7.25,7.25,0,0,1-3.83-.65,4.31,4.31,0,0,1-1.54-2.77,34.32,34.32,0,0,1-1-7.61c-.07-1.93-3.07-1.94-3,0Z"/><line class="cls-2" x1="76.05" y1="63.73" x2="86.51" y2="61.42"/><path class="cls-3" d="M76.45,65.17l9.16-2,1.3-.28A1.53,1.53,0,0,0,88,61,1.54,1.54,0,0,0,86.11,60L77,62l-1.3.29a1.5,1.5,0,0,0,.79,2.89Z"/><path class="cls-3" d="M85,56.27a56.19,56.19,0,0,0,.6,10.21c.26,1.57.67,3.38,2.22,4.15a13.44,13.44,0,0,0,5.33,1,43.15,43.15,0,0,0,13.94-1.54,9.05,9.05,0,0,0,4.39-2.3c1.25-1.44.94-3.59.63-5.32a51.08,51.08,0,0,0-3.73-11.21c-.76-1.77-3.35-.24-2.59,1.51,0,.06,0,.12.08.19-.08-.19,0,0,.11.27q.44,1,.84,2.1c.7,1.83,1.34,3.69,1.86,5.58a22.4,22.4,0,0,1,.61,2.79,8.78,8.78,0,0,1,.09,1,5.88,5.88,0,0,1,0,.75c0,.14-.08.27-.11.4.08-.31-.17.1.08-.15a3.65,3.65,0,0,1-.39.36,7.37,7.37,0,0,1-1.91.89,38.27,38.27,0,0,1-12,1.7,19.58,19.58,0,0,1-5.13-.45c-.13,0-.86-.27-.58-.18-.06,0-.14-.09-.21-.11-.26-.05.13.19,0,0,.17.24-.12-.31-.12-.3a8.06,8.06,0,0,1-.33-1.26,46.28,46.28,0,0,1-.61-10c0-1.93-3-1.93-3,0Z"/><path class="cls-2" d="M92,37c6.53-3.86,10.82,3,4,6.43S83.56,42,92,37Z"/><path class="cls-3" d="M92.75,38.27a9.42,9.42,0,0,1,.89-.47,1.89,1.89,0,0,0,.21-.09c-.34.19-.19.08-.07,0l.44-.15a5.67,5.67,0,0,1,.81-.21l.19,0c.28-.05-.34,0-.14,0s.28,0,.43,0,.45,0,.67,0,.25.09-.17,0l.19,0,.33.07.29.09.13,0c.24.09-.36-.17-.14,0a3.7,3.7,0,0,1,.51.29c.31.21-.27-.25,0,0,.06.06.13.11.19.18s.12.13.18.19.12.23-.14-.18a1.77,1.77,0,0,1,.12.17c.06.09.26.35.25.45s-.15-.41-.1-.21l.06.14a2.82,2.82,0,0,1,.07.31s0,.06,0,.1c0,.24,0-.43,0-.19a2.46,2.46,0,0,1,0,.26c0,.09,0,.18,0,.28s0,.07,0,.1c0-.49,0-.28,0-.12a5.15,5.15,0,0,1-.16.56c-.11.33.17-.34,0,0-.06.11-.12.23-.19.34a2.2,2.2,0,0,1-.18.28c-.21.3.23-.27,0,0a6.43,6.43,0,0,1-.57.6l-.31.26c-.18.15.09-.07.11-.08a1.13,1.13,0,0,0-.21.15,7.86,7.86,0,0,1-.87.54c-.29.16-.59.3-.89.44s.25-.1,0,0l-.22.08-.52.19c-.28.09-.56.17-.85.24a2.71,2.71,0,0,1-.41.09c-.13,0-.7.09-.16,0A8.93,8.93,0,0,1,91,43c-.14,0-.56-.1,0,0l-.32,0c-.22-.05-.44-.11-.65-.18a.76.76,0,0,1-.16-.06s.39.18.2.08l-.25-.12-.23-.14-.12-.09c.37.22.25.2.14.1l-.18-.17c-.12-.12-.22-.34,0,.09l-.13-.2c-.1-.16-.14-.43,0,.06a2.14,2.14,0,0,1-.09-.27l0-.14c-.06-.21,0,.44,0,.21s0-.2,0-.3v-.1c0-.33-.08.37,0,.14s.05-.22.08-.33.16-.44,0-.15.07-.13.11-.2a3.37,3.37,0,0,1,.19-.32c.08-.13.17-.24.25-.36-.28.42,0,0,.13-.13a9.08,9.08,0,0,1,.76-.76,2.45,2.45,0,0,1,.47-.38c-.26.13-.15.11-.06,0l.36-.26c.39-.28.8-.53,1.21-.78a1.5,1.5,0,1,0-1.52-2.59c-2.39,1.43-5.46,3.8-4.93,7,.41,2.47,3.2,3.45,5.4,3.39a11.63,11.63,0,0,0,4.38-1,9.18,9.18,0,0,0,3.52-2.53A5.48,5.48,0,0,0,100.94,39a4.55,4.55,0,0,0-1.33-3.11c-2.27-2.29-5.86-1.64-8.38-.17a1.5,1.5,0,0,0,1.52,2.59Z"/><path class="cls-2" d="M63.92,40.94c-8.46-1.42-10.44,5.2-2,6.62C68.7,48.7,74.21,42.67,63.92,40.94Z"/><path class="cls-3" d="M64.32,39.49a13.14,13.14,0,0,0-5.19,0A5.93,5.93,0,0,0,56,41.31a3.77,3.77,0,0,0-.83,3.45,5.2,5.2,0,0,0,2.44,2.88,12.17,12.17,0,0,0,4.81,1.49,11,11,0,0,0,3.95-.26c2.14-.53,4.54-1.93,4.77-4.34a3.51,3.51,0,0,0-1.3-2.88,9.89,9.89,0,0,0-4.11-1.88c-.46-.11-.91-.2-1.37-.28a1.55,1.55,0,0,0-1.85,1,1.51,1.51,0,0,0,1.05,1.84,17.37,17.37,0,0,1,2.37.56l.48.16c.13,0,.64.28.16,0a7.54,7.54,0,0,1,.75.38l.31.19.15.1c.21.14-.31-.26-.13-.1a5.86,5.86,0,0,1,.44.42c.2.23-.24-.37,0,0a2.53,2.53,0,0,1,.13.22c.14.25-.13-.4-.06-.14,0,.09.05.18.07.26s0-.46,0-.25v.11a1.55,1.55,0,0,1,0,.22c0-.52.06-.35,0-.18a2.58,2.58,0,0,1-.08.26c-.06.2.19-.4.09-.22l0,.11a2.39,2.39,0,0,1-.13.21c-.09.14-.28.25.08-.1-.07.07-.13.16-.2.23l-.2.2c-.06,0-.33.26-.07.06s0,0-.09.06l-.31.2a5.52,5.52,0,0,1-.54.28l-.15.08c-.23.1.38-.15.14-.07l-.39.15a9.39,9.39,0,0,1-1.48.36c-.12,0-.39,0,.13,0l-.2,0-.35,0c-.3,0-.61,0-.91,0a7.34,7.34,0,0,1-.81-.05l-.22,0c-.29,0,.4.06.1,0s-.44-.07-.65-.12a16.54,16.54,0,0,1-2.08-.61c.47.15.06,0-.07,0a3.6,3.6,0,0,1-.39-.2,7.54,7.54,0,0,1-.7-.45c-.15-.1.32.27.14.1l-.14-.11-.25-.24a2.41,2.41,0,0,0-.21-.24c.37.39.12.15,0,0L58,44c-.14-.28.15.42,0,.06L58,43.79c-.08-.28,0,.48,0,.1v-.25c0-.15.1-.25,0,.23a.53.53,0,0,0,0-.12l.06-.25c.08-.28-.2.41,0,.08,0-.09.1-.18.16-.27.22-.31-.27.3,0,0l.2-.21.12-.1c.24-.21-.29.2-.1.08a6.34,6.34,0,0,1,.66-.39l.14-.07c.22-.1-.41.16-.07,0a3.66,3.66,0,0,1,.43-.15,7.06,7.06,0,0,1,.91-.21h-.1l.32,0c.19,0,.38,0,.58,0a11.25,11.25,0,0,1,1.16,0l.68.06.09,0c.17,0,.14,0-.09,0,.09,0,.31,0,.41.06a1.59,1.59,0,0,0,1.15-.15,1.49,1.49,0,0,0,.69-.89A1.52,1.52,0,0,0,64.32,39.49Z"/><path class="cls-2" d="M83.94,76c-2.88-4.6-17.73,8.72-9.44,12.87C81.37,92.3,88.23,82.86,83.94,76Z"/><path class="cls-3" d="M85.23,75.24c-1.63-2.52-4.81-1.73-7-.51A17,17,0,0,0,71.77,81c-1.42,2.51-1.94,5.79.35,8a8,8,0,0,0,5.35,2.08,8.67,8.67,0,0,0,5.69-2.31,10.87,10.87,0,0,0,2.07-13.55c-1-1.64-3.6-.13-2.59,1.52a7.05,7.05,0,0,1,1,2.44,7.89,7.89,0,0,1,.08,2.46c0-.24-.06.34-.06.38a6,6,0,0,1-.15.61c0,.2-.11.4-.17.6l-.11.29s-.18.43-.08.21a10.23,10.23,0,0,1-.57,1.09,4.45,4.45,0,0,1-.33.51l-.18.25c.12-.16,0,.05-.09.11a9.35,9.35,0,0,1-.87.91l-.27.23a6.3,6.3,0,0,1-.53.37,4.88,4.88,0,0,1-2,.81l-.16,0-.15,0a8.42,8.42,0,0,1-1.16,0c-.25,0,.2,0,0,0L76.4,88a5.74,5.74,0,0,1-1.91-.86c-.17-.1.16.16-.1-.08a3.71,3.71,0,0,1-.29-.27c-.11-.12-.25-.31-.06-.05-.09-.12-.17-.24-.25-.37s-.1-.21-.16-.31c.15.27.06.16,0,0s0-.22-.08-.33c-.12-.39,0,.29,0-.11,0-.24,0-.47,0-.71s0,.15,0,0,0-.27.08-.41.15-.53.24-.79c0-.1.21-.48,0-.1.07-.15.13-.29.2-.42a11,11,0,0,1,1-1.58l.26-.36c.13-.17-.16.2,0,0l.15-.18c.2-.25.41-.49.63-.73a18,18,0,0,1,1.4-1.36l.35-.29c.09-.07.4-.32.14-.12.26-.2.53-.39.8-.57a13.38,13.38,0,0,1,1.69-1c.36-.17-.18.05.12,0l.38-.14a8,8,0,0,1,.81-.21c.38-.08-.27,0,0,0h.47c.32,0-.14.07-.13,0s.27.06.29.06c.36.07-.14-.11,0,0s.24.15.28.16c-.29,0-.25-.25-.16-.12a.86.86,0,0,0,.14.13c.26.22-.18-.28,0,0C83.69,78.37,86.29,76.87,85.23,75.24Z"/><path class="cls-3" d="M83.3,76c-.49,3.81,3.09,7,6.12,8.6s7.58,2.87,10.36.22a6.24,6.24,0,0,0,1.71-4.64,6.77,6.77,0,0,0-1.9-4.2c-2.2-2.35-5.57-3.51-8.69-3.87-2.68-.31-7,.14-7.55,3.49a1.55,1.55,0,0,0,1.05,1.85,1.51,1.51,0,0,0,1.84-1c0-.1.05-.21.07-.31s.21-.31,0,0c0-.07.07-.16.13-.23s-.26.23,0,0a2.28,2.28,0,0,0,.22-.22c.12-.15-.3.17,0,0l.25-.15c.17-.09.4-.16.07,0,.24-.08.47-.17.71-.23l.33-.07c.15,0,.53-.07.16,0A11.63,11.63,0,0,1,90,75c.31,0,.63,0,.94.08s-.24,0,.14,0l.55.09a14.22,14.22,0,0,1,1.94.52c.32.1.63.22.94.35l.16.07.5.25a10.59,10.59,0,0,1,1.63,1c-.26-.2.06.06.14.12s.23.21.33.31.41.42.6.65c-.21-.25,0,0,.07.14a3.28,3.28,0,0,1,.2.31c.06.12.12.25.19.37s-.1-.26,0-.07l.09.25c0,.13.07.26.11.4a1.77,1.77,0,0,0,0,.2s0-.31,0-.14a7.06,7.06,0,0,1,0,.92c0,.24.07-.25,0,.16,0,.14-.06.27-.1.4s-.11.32-.17.47.1-.2,0,0-.09.19-.14.28a3,3,0,0,1-.24.38c.17-.24,0,0-.09.07l-.16.15c-.15.14.22-.15,0,0l-.42.25c-.2.12.23,0-.16.06-.13,0-.26.09-.39.12s-.52.1-.33.07l-.42,0a8,8,0,0,1-1,0l-.27,0c-.24,0,.22,0,0,0L94,83.13c-.35-.08-.71-.18-1.06-.29l-.57-.2-.28-.11s-.34-.14-.14,0a15.28,15.28,0,0,1-2.44-1.35,6.78,6.78,0,0,1-.9-.7,10.28,10.28,0,0,1-.95-.92,7.15,7.15,0,0,1-1.1-1.66c0,.09-.11-.31-.14-.42a5.23,5.23,0,0,1-.12-.54c0-.23,0,.25,0,0s0-.2,0-.31a3.18,3.18,0,0,1,0-.61,1.5,1.5,0,0,0-3,0Z"/><path class="cls-2" d="M50.44,128.22s0-5.86,7.22-8.28c5.75-1.92,9.46,3.6,7.44,7.37a10,10,0,0,1-3.76,3.3"/><path class="cls-3" d="M51.94,128.22c0-.05,0-.11,0-.16,0-.26.14-.54,0-.15.18-.52.24-1.09.43-1.62a2.6,2.6,0,0,1,.1-.25c-.13.3,0,.1,0,0s.18-.37.28-.55.19-.35.29-.51l.19-.29s.27-.37.11-.16a8.49,8.49,0,0,1,2.18-2,10,10,0,0,1,3.57-1.47,4.64,4.64,0,0,1,2.71.31,4,4,0,0,1,2.34,4.07c0,.27.08-.34,0,.12a3.54,3.54,0,0,1-.11.44,1.41,1.41,0,0,1-.2.49A5.26,5.26,0,0,1,62.55,128a9.79,9.79,0,0,1-2,1.31c-1.72.87-.21,3.46,1.51,2.59,2.1-1.06,4.22-2.85,4.85-5.19a6.94,6.94,0,0,0-2.32-7c-2.6-2.14-5.85-2-8.8-.68A11.53,11.53,0,0,0,50,124.23a9.2,9.2,0,0,0-1.09,4,1.5,1.5,0,0,0,3,0Z"/><path class="cls-3" d="M141.25,106.51a7.08,7.08,0,0,1-1.13,0c-.08,0-.68-.08-.33,0a4.85,4.85,0,0,1-.55-.09,10.12,10.12,0,0,1-1.55-.42c-1.91-.66-3.91-2.39-4.23-4.35,0,.27,0-.22,0-.31s0-.24,0-.36-.09.34,0-.08a4.61,4.61,0,0,1,.15-.53c.14-.42-.08.14,0-.09s.13-.25.2-.37,0-.09.25-.32l.26-.26s.28-.25.1-.11a4.54,4.54,0,0,1,1.16-.64c2.55-.92,5.66-.11,8,1.16a11.58,11.58,0,0,1,3.16,2.63s.33.4.14.15l.22.31c.1.14.2.28.29.43l.25.42c.87,1.73,3.46.21,2.59-1.51a12.7,12.7,0,0,0-4.51-4.64c-2.95-1.87-7-3-10.48-2a6.26,6.26,0,0,0-4.81,5.5c-.18,3,2.11,5.67,4.58,7a11.77,11.77,0,0,0,6.2,1.49c1.92-.11,1.93-3.11,0-3Z"/></g><g id="レイヤー_2" data-name="レイヤー 2"><rect class="cls-4" x="65.34" y="91.44" width="68.94" height="42.01" rx="15.33" transform="translate(-20.18 21.84) rotate(-11.35)"/><path class="cls-5" d="M74.73,118c4.3-6.2,10.06-11.63,17-14.75,7.32-3.29,15.67-3.21,23.27-.94a46.91,46.91,0,0,1,12.2,5.62"/><circle class="cls-3" cx="100.5" cy="114.89" r="11.01"/><circle class="cls-2" cx="93.02" cy="111.6" r="3.74"/></g></g><g id="レイヤー_3" data-name="レイヤー 3"><path class="cls-6" d="M254.38,121.59q-10.73,0-15.84-3.81t-5.11-11.88q0-14.62,17-19.66V80.73c0-1.27,0-2.22.07-2.84-2.49.14-5.1.25-7.81.32s-5.41.11-8.1.11l.29-7.13q4,.51,8.17.76t7.67.25c.14-1.44.35-3.3.61-5.58s.54-4.43.83-6.44q8,.65,14.62.65c-.34,1.92-.66,3.72-1,5.4s-.58,3.41-.82,5.18q5.89-.64,10.58-1.44t8.86-1.8l.86,6.48q-4.17.87-9.29,1.48c-3.41.4-7.27.78-11.59,1.11q-.43,3.47-.79,7c.86,0,1.95,0,3.27.14s2.37.19,3.14.29V81.13a86.68,86.68,0,0,1,12.67,1.3c-.24,3.12-.39,5.45-.43,7A21.23,21.23,0,0,1,287.9,96a46,46,0,0,1,4.14,9.69,52.3,52.3,0,0,1,2.09,11.48,55.86,55.86,0,0,1-6.48,1.84,29.48,29.48,0,0,1-6.12.68q0-4.32-.11-7.13a46.28,46.28,0,0,0-.4-4.79,21.77,21.77,0,0,0-.86-3.7q-2.45,9.21-8.61,13.39T254.38,121.59Zm2.09-5a11.07,11.07,0,0,0,7.38-2.74,17.9,17.9,0,0,0,5-7.49,30.11,30.11,0,0,0,1.8-10.73c0-.81,0-1.64-.1-2.48s-.16-1.69-.26-2.56a26.15,26.15,0,0,0-3.42-.61,31.43,31.43,0,0,0-3.34-.18c0,1.06-.08,2.46-.08,4.21v4.86c0,1.83,0,3.59,0,5.3s.06,3.27.11,4.71a39,39,0,0,0-9.58,1.44,83.64,83.64,0,0,1-3.45-17.49A11.2,11.2,0,0,0,246,97.22a12.44,12.44,0,0,0-1.58,6.3,13.76,13.76,0,0,0,1.58,6.63,12.57,12.57,0,0,0,4.32,4.71A11,11,0,0,0,256.47,116.63Z"/><path class="cls-6" d="M302.26,118.28a87.75,87.75,0,0,1-2.81-13.53,116.86,116.86,0,0,1-1-15.41c0-2.78.1-5.58.32-8.39s.59-6.2,1.12-10.19c2,0,4,.16,6,.33s4.28.39,6.63.68a140,140,0,0,0-.87,16,131.66,131.66,0,0,0,1.44,20.52l7.42-1.72.94,4.6Q310.83,115.54,302.26,118.28Zm39.89-8a134.07,134.07,0,0,0-1.08-16.38q-1.08-8.75-2.95-18.25a45.37,45.37,0,0,1,11.16-2.23,91.24,91.24,0,0,1,4,16.48,135.2,135.2,0,0,1,1.22,19Q349.5,109.64,342.15,110.29Z"/><path class="cls-6" d="M395,124.33a78.76,78.76,0,0,1-17.64-3.17q-7.49-2.37-11.59-6t-4.11-8.07q0-5.18,5.62-8.53t16.05-4.36c0-.81,0-1.8-.14-3s-.22-2.35-.36-3.6a107.65,107.65,0,0,0-20.81,4l-1.15-6.55q4.61-.8,9.83-1.44t11.41-1.22l-.94-5.69q-3.81.29-8.85.93t-12.75,1.88l-.79-6.27c2.21-.29,4.66-.56,7.35-.83s5.3-.49,7.84-.68,4.66-.31,6.34-.36c-.34-1.68-.74-3.46-1.22-5.33s-.94-3.45-1.37-4.75q4.45-.8,8.39-1.26t7.16-.54c.19,1,.38,2.21.58,3.6s.37,2.79.54,4.18.27,2.59.32,3.6a147.56,147.56,0,0,1,15.91.72l-.72,5.68a68.56,68.56,0,0,0-7-1Q399.1,76,395.29,76l.5,6c1.2,0,2.67.06,4.43.18s3.5.27,5.25.46,3.18.41,4.29.65l-1,5.69a73.33,73.33,0,0,0-12.6-1.87c.1,1.63.17,3.5.22,5.61s.07,4.54.07,7.28c-1.4-.24-2.93-.42-4.61-.54s-3.38-.18-5.11-.18a34.58,34.58,0,0,0-10.66,1.26q-3.68,1.26-3.67,3.7,0,6.56,27.94,8.5a62.57,62.57,0,0,1-2.45,6.26A43.17,43.17,0,0,1,395,124.33Z"/><path class="cls-6" d="M432.51,127.14a237.15,237.15,0,0,1-7.27-26.57l-8.79,3.53-1.51-6.27,9.29-3c-.14-.86-.35-2-.61-3.49s-.53-3-.79-4.68-.5-3.18-.69-4.57c.82-.19,1.8-.37,2.95-.54s2.31-.3,3.46-.4,2.11-.17,2.88-.21c.24,1.63.52,3.41.83,5.32s.68,4,1.11,6.27a25.88,25.88,0,0,1,3.78-.94,38.91,38.91,0,0,1,4.14-.57c-.14-2.6-.28-4.8-.43-6.63s-.33-3.45-.57-4.89c.86-.15,1.9-.27,3.13-.36s2.45-.18,3.67-.26,2.27-.1,3.13-.1q.15,1.29.18,2.7c0,.93.05,2.07.07,3.42s0,3.09,0,5.25q8.57.08,12.42,3.53t3.85,11.09a31.34,31.34,0,0,1-.86,7.27c-.77,0-1.85,0-3.24-.07s-2.8-.13-4.21-.25-2.61-.26-3.57-.4q.94-4.25,1.26-6.37a24,24,0,0,0,.33-3.57,6.8,6.8,0,0,0-1.41-4.71,7,7,0,0,0-4.57-1.91v10.87c-.53.1-1.36.2-2.48.29s-2.28.17-3.46.22-2.12.07-2.84.07c0-2.06,0-3.75,0-5s-.05-2.41-.07-3.35-.09-1.81-.18-2.63c-1.49.34-2.8.66-3.93,1l-3.13.9q3.47,13,8.93,27.58-3.39.87-6.34,1.51C435,126.63,433.52,127,432.51,127.14Z"/><path class="cls-6" d="M499.18,126.85a62.44,62.44,0,0,1-9.86-9.29q10.51-6.12,15.08-10.26T509,99.85a4.89,4.89,0,0,0-2.52-4.32A12.5,12.5,0,0,0,499.76,94a51.66,51.66,0,0,0-11.13,1.65q-7,1.66-16.23,4.83l-1.3-6.56q4.83-1.29,10.23-2.3T491.66,90a72.81,72.81,0,0,1,8.39-.58,29.86,29.86,0,0,1,10.47,1.69,16.27,16.27,0,0,1,7,4.75,10.86,10.86,0,0,1,2.52,7.1,16.48,16.48,0,0,1-2.63,8.49,34.68,34.68,0,0,1-7.34,8.43A49.59,49.59,0,0,1,499.18,126.85Z"/><path class="cls-6" d="M553.54,126.42a126.24,126.24,0,0,1-11-8.14,43.46,43.46,0,0,0,13.17-7.63q4.68-4.25,4.68-8.42,0-5-7-5a25,25,0,0,0-4.32.43q-2.46.43-6,1.44t-8.78,2.81c0-2.12,0-3.94.07-5.48s.13-3,.25-4.42.29-3,.5-4.61.52-3.61.9-5.87c-1.53.19-3.22.44-5.07.76a51.93,51.93,0,0,0-5.58,1.26L524.38,76q4-.58,7.27-.94c2.16-.24,4.06-.4,5.69-.5.43-2.26,1-4.61,1.66-7.06s1.46-5.13,2.37-8.06q4.47,0,8.43.29a54.32,54.32,0,0,1,6.77.86c-1.16,2.69-2.14,5-3,7.06s-1.58,4-2.3,5.9c2.3-.14,4.92-.22,7.85-.22q3.68,0,7.23.15c2.38.1,4.6.26,6.66.5l-.36,6.19q-3.74-.36-7.59-.54c-2.57-.11-4.93-.18-7.09-.18-1.54,0-3.08,0-4.61.11s-2.91.18-4.11.33a73.27,73.27,0,0,0-2.88,12.88c1.78-.33,3.48-.58,5.12-.75a45.72,45.72,0,0,1,4.75-.25q8.13,0,13,2.95t4.82,7.92a14.16,14.16,0,0,1-1.55,6,29,29,0,0,1-4.32,6.44,45.11,45.11,0,0,1-6.51,6.12A50.8,50.8,0,0,1,553.54,126.42Z"/><path class="cls-6" d="M599.69,123.9q-7.77,0-12.45-3.1t-6.77-10q-2.09-6.9-2.09-18.43a264.73,264.73,0,0,1,1.73-26.93c1.1-.09,2.58-.19,4.43-.28s3.76-.17,5.76-.22,3.75-.07,5.29-.07q-1.59,11.08-2.34,18.9t-.76,13.57q0,10.44,2.45,15.34a8.09,8.09,0,0,0,7.71,4.89q8,0,19.8-10.94l4.82,6.12a49,49,0,0,1-13.36,8.42A37.31,37.31,0,0,1,599.69,123.9Zm7.13-38.81q-1-5.76-2.09-14.62l8.64-1.22q.58,3.39,1.12,6.84t1,7.7Zm11.38-1.73-2.38-14.47,8.79-1.3q.57,3.24,1.11,6.81c.36,2.37.73,4.91,1.12,7.59Z"/><path class="cls-6" d="M668.88,128.43q-6.9,0-10.18-3t-3.28-9.18c0-.68,0-1.39.07-2.16s.12-1.59.22-2.45a6.63,6.63,0,0,0-3,.65,7.66,7.66,0,0,0-2.66,2.41,31.73,31.73,0,0,0-2.92,5q-1.59,3.19-3.81,8.31-2.31-.65-4.94-1.62c-1.75-.65-4-1.52-6.8-2.63q4.24-7.12,7.85-12.13a72,72,0,0,1,7.16-8.6,53.55,53.55,0,0,1,7.52-6.34c-3.55.2-7,.54-10.51,1s-6.84,1.11-10.15,1.83l-.58-5.9c2.12-.1,4.64-.19,7.56-.29s6-.18,9.33-.25l9.72-.18q4.78-.07,8.82-.07l.57,5.32q-6.54,1.23-14,9.58c1.3,0,2.86,0,4.68.11a29.43,29.43,0,0,1,4.54.47q0,5.46,1.66,7.92t5.4,2.44c.57,0,1.32,0,2.23-.1s1.8-.14,2.66-.18c0,1.39,0,3-.14,4.93s-.19,3.42-.29,4.57c-1.25.19-2.44.32-3.56.4S669.84,128.43,668.88,128.43ZM651.6,90.06c-.28-1.83-.66-3.82-1.11-6s-1.09-4.65-1.91-7.49a38.66,38.66,0,0,1,4.32-.32q3-.1,6.19-.11.51,3.24.87,7c.24,2.47.36,4.72.36,6.73l-2.2,0-3.53.07C653.37,90,652.37,90,651.6,90.06Z"/><path class="cls-6" d="M699.2,123.18c-.48-3-.88-6.13-1.19-9.33s-.57-6.39-.76-9.61q-1.15,2.16-2.88,5.69t-4.61,9.5a33.18,33.18,0,0,1-9.43-10.15,88.66,88.66,0,0,1,6.52-11.12q4.06-6,10-13.43V82.07q-4,.57-7.34,1.15t-6.7,1.22L682.49,77q2.75-.36,6.48-.54t8.07-.18q.42-10.08.86-15.77a71,71,0,0,1,11.66.65c-.14,1.29-.31,3.09-.5,5.4s-.36,4.53-.5,6.69a23.48,23.48,0,0,1,4.71-2.34,37.3,37.3,0,0,1,5.8-1.65,28.28,28.28,0,0,1,5.61-.62,11.92,11.92,0,0,1,8.54,3c2.13,2,3.68,5.27,4.64,9.75a89.44,89.44,0,0,1,1.44,18,25.54,25.54,0,0,1,3.64,2.45,58.24,58.24,0,0,1,4.35,3.88l-3.81,6.92-4.9-4.83c-.19,2.21-.46,4.41-.79,6.59s-.75,4.28-1.23,6.3a44.31,44.31,0,0,1-6.76.58q-7.2,0-11.2-3.35a11.43,11.43,0,0,1-4-9.25,11.14,11.14,0,0,1,3.53-8.72q3.52-3.17,9.87-3.38,0-11.23-1.62-16.67t-4.79-5.43a9,9,0,0,0-4.54,1.69,29,29,0,0,0-9.36,10c-.05,2.11-.08,3.81-.11,5.08s0,2.6,0,4c0,2.74,0,5.43.11,8.07s.2,5.42.39,8.35.43,6.26.72,10q-2.52.57-4.89.93T699.2,123.18Zm28-6.27q.36-4.45.54-8.78t.18-7.13a5.13,5.13,0,0,0-3.67,2.63,11.26,11.26,0,0,0-1.37,5.87,9,9,0,0,0,1,4.64A7,7,0,0,0,727.2,116.91Z"/><path class="cls-6" d="M771.77,124.4q-.72-5.12-1.19-11.09t-.68-11.73q-2.16,4-4.54,8.85t-4.24,9.36a57.32,57.32,0,0,1-9.51-9.72q4.17-6.48,9-12.6A113.8,113.8,0,0,1,769.9,87l.14-4.1-6.84,0q-3.6,0-6.91.18v-7c1.06,0,2.45,0,4.18.11s3.49.17,5.29.29,3.32.25,4.57.39q.36-5,.65-8.53c.19-2.33.41-4.52.65-6.59q2.6,0,5.43.15c1.9.09,3.65.22,5.26.39a32.45,32.45,0,0,1,3.64.54c-.15.82-.35,2.09-.62,3.82s-.5,3.52-.72,5.36-.39,3.4-.54,4.65a53.22,53.22,0,0,1,24.55-5.55q0,10.08.11,17.14t.43,11.7a44.68,44.68,0,0,0,1,7.34,9.38,9.38,0,0,0,1.87,4,5.42,5.42,0,0,0,3,1.65,22.11,22.11,0,0,0,4.4.36l.57,6.27a32.52,32.52,0,0,1-6.19.65,15.29,15.29,0,0,1-11.2-4.22q-4.27-4.2-6.26-13.35t-2-23.76q-5.26,1.08-11.16,6.26c-.1,2.79-.18,5.7-.25,8.75s-.11,6.35-.11,9.9c0,2.3,0,4.48.07,6.52s.11,4.08.18,6.12.18,4.28.33,6.73c-1.88.29-3.83.54-5.87.75S773.59,124.31,771.77,124.4Z"/><path class="cls-6" d="M876.75,97a82.47,82.47,0,0,0-9.18-.72q-6.09-.21-15.88-.21c-3.89,0-7.34,0-10.37.07s-5.83.13-8.42.25-5.21.3-7.85.54l-.72-8.14q10.44-1.36,18.47-2T858,86.24q4.32,0,9,.22c3.15.14,6.49.36,10.05.65Z"/><path class="cls-6" d="M901.73,122.24l-15.55-1.51q.86-5,1.94-10.76t2.2-11.34q1.11-5.62,2.19-10.34t2-7.81c-1.44.34-3.19.79-5.26,1.37s-4.24,1.27-6.55,2.09l-1.22-6c1.34-.43,2.88-.85,4.6-1.26l5.22-1.19c1.76-.38,3.3-.69,4.65-.93.48-1.78,1.11-3.93,1.91-6.45s1.57-4.93,2.34-7.23A68.71,68.71,0,0,1,913.25,62q-1.15,3.88-1.87,6.41c-.48,1.68-.89,3.14-1.23,4.39q6.12-.57,13.25-.87t13.54-.28l-.72,7c-3.07-.38-5.69-.64-7.85-.76s-4.3-.18-6.41-.18c-1.77,0-3.71,0-5.79.11s-4.48.23-7.17.47q-1.57,6.56-3.45,17.93T901.73,122.24Zm29.38-1.65q-9.36,0-14.22-2.34T912,111.44a9.54,9.54,0,0,1,1.18-4.53,9.88,9.88,0,0,1,3.21-3.6l4.46,1.29a7.48,7.48,0,0,0-.86,3.1c0,2.45,2.61,3.67,7.85,3.67,1.53,0,3.25-.1,5.14-.29s4.14-.45,6.74-.79a55.29,55.29,0,0,1,1,9.79c-1.63.19-3.26.33-4.89.4S932.64,120.59,931.11,120.59ZM914.47,93.37l-1.72-5.62a44.81,44.81,0,0,1,8-1.58,85.72,85.72,0,0,1,10.08-.58,66.21,66.21,0,0,1,9.72.65q-.51,2-1.08,3.6c-.39,1.06-.87,2.21-1.44,3.46a31.58,31.58,0,0,0-10.08-1.59,50.71,50.71,0,0,0-5.94.4C919.81,92.38,917.31,92.79,914.47,93.37Z"/></g></svg>